<?xml version="1.0" encoding="UTF-8"?>
<svg id="Layer_1" data-name="Layer 1" xmlns="http://www.w3.org/2000/svg" viewBox="0 0 187.09 219.98">
  <defs>
    <style>
      .cls-1 {
        fill: #fff;
        stroke-width: 0px;
      }
    </style>
  </defs>
  <path class="cls-1" d="M1.01,103.11c10.04,8.84,22.13,10.79,34.13,12.92,28.7,5.11,57.62,4.98,86.59,3.48,16.1-.83,32.04-2.77,47.58-7.31,6.24-1.82,12.21-4.2,17.63-9.28,0,7.19.41,13.65-.09,20.04-1.01,13.1-4.9,25.38-11.11,37.02-7.85,14.75-18.26,27.11-32.31,36.23-2.72,1.76-3.84,3.71-3.71,6.95.29,7.68-1.41,10.07-9.03,12.2-16.5,4.61-33.36,5.29-50.34,4.07-7.29-.52-14.48-1.82-21.58-3.66-8.28-2.14-10.47-4.62-10-13.06.17-3.08-1.42-4.4-3.5-5.76-15.57-10.2-27.2-23.88-35.37-40.5-5.74-11.68-8.84-24.11-9.4-37.12-.22-5.21-1.22-10.47.52-16.24ZM171.17,133.31c-.05-1.57.17-2.99-1.35-3.43-1.68-.49-2.48.77-3.03,2.05-.59,1.36-1.07,2.79-1.45,4.22-3.37,12.75-8.7,24.45-17.95,34.11-.46.48-.82,1.08-1.15,1.66-.6,1.03-.7,2.1.27,2.96.95.84,2.05.7,2.97-.04.95-.76,1.82-1.62,2.64-2.52,6.74-7.42,11.52-16.02,14.94-25.38,1.67-4.57,3.25-9.18,4.12-13.62ZM47.02,136.31c1.98.2,3.16-.65,3.6-2.23.56-2.02-1.04-2.59-2.49-2.95-5.35-1.31-10.72-2.55-16.09-3.75-1.44-.32-2.74.04-3.23,1.64-.55,1.81.48,2.8,2.01,3.39,5.3,2.06,10.96,2.59,16.2,3.88Z"/>
  <path class="cls-1" d="M122.61,55.1c0-14.76-.02-29.51.02-44.27,0-2.15.21-4.32.51-6.45.39-2.75,2.2-3.9,4.89-3.73,2.7.17,4.19,1.74,4.57,4.31.2,1.33.09,2.7.09,4.06,0,21.93.09,43.86-.11,65.79-.04,3.92,1.34,5.16,4.97,5.49,10.26.93,20.29,3.17,30.2,5.91,3.52.97,6.99,2.24,9.85,4.64,4.17,3.49,3.85,6.58-1.04,9-7.61,3.76-15.89,5.27-24.15,6.67-8.26,1.4-16.57,2.55-24.97,2.87-2.95.11-4.35-.57-4.47-3.93-.53-15.56-.17-31.13-.28-46.69,0-1.22,0-2.44,0-3.66h-.08Z"/>
  <path class="cls-1" d="M60.06,94.45c0,3.79.05,7.58-.02,11.37-.04,2.42-1.16,3.68-3.82,3.45-14.58-1.25-29.05-3.1-42.85-8.26-2.59-.97-5.55-2.18-5.64-5.67-.09-3.6,2.69-5.1,5.45-6.34,9.59-4.34,19.87-6.05,30.13-7.82,3.86-.66,7.76-1.09,11.64-1.63,3.64-.51,5.31,1.03,5.18,4.75-.12,3.38-.03,6.77-.03,10.15h-.04Z"/>
  <path class="cls-1" d="M86.64,55.52c0-16.11,0-32.22,0-48.33,0-.95-.09-1.92.08-2.84C87.25,1.59,89.08.08,91.8,0c2.73-.08,4.07,1.54,4.45,4.25.75,5.41.38,10.82.19,16.22-.71,20.03.16,40.06.11,60.08-.02,8.25-.21,16.49-.23,24.74-.01,3.67-1.75,5.02-5.32,4.84-3.71-.19-4.39-2.41-4.38-5.47.03-16.38.01-32.76.01-49.14Z"/>
  <path class="cls-1" d="M104.61,64.33c0-13.13-.01-26.27.02-39.4,0-1.33.15-2.7.47-3.99.49-1.91,1.95-2.89,3.85-3.11,2.07-.24,3.74.54,4.78,2.37.75,1.32.99,2.77.99,4.3-.04,26.4-.02,52.8-.11,79.21,0,2.7.47,5.99-3.79,6.39-4.72.44-6.22-.77-6.24-5.55-.05-13.4-.02-26.81-.02-40.21h.05Z"/>
  <path class="cls-1" d="M78.18,68.84c0,11.78-.06,23.56.04,35.34.03,3.52-.94,5.83-4.89,5.9-3.62.07-5.22-1.39-5.24-5.62-.09-23.83-.1-47.66-.07-71.48,0-3.94,2.27-6.49,5.4-6.25,3.92.3,4.68,3.17,4.69,6.37.04,11.91.02,23.83.02,35.74.02,0,.03,0,.05,0Z"/>
</svg>